<svg viewBox="0 0 200 112" xmlns="http://www.w3.org/2000/svg" xmlns:xlink="http://www.w3.org/1999/xlink" width="200.000000" height="112.000000" fill="none">
	<defs>
		<linearGradient id="paint_linear_26" x1="4.95910645e-05" x2="200" y1="36" y2="36" gradientUnits="userSpaceOnUse">
			<stop stop-color="rgb(250,138,78)" offset="0.00999917183" stop-opacity="1" />
			<stop stop-color="rgb(251,179,83)" offset="0.246110305" stop-opacity="1" />
			<stop stop-color="rgb(227,84,141)" offset="0.476269156" stop-opacity="1" />
			<stop stop-color="rgb(143,88,240)" offset="0.732221365" stop-opacity="1" />
			<stop stop-color="rgb(98,154,244)" offset="0.992142141" stop-opacity="1" />
		</linearGradient>
	</defs>
	<rect id="码镜" width="200.000000" height="112.000000" x="0.000000" y="0.000000" fill="rgb(255,255,255)" fill-opacity="0" />
	<path id="" d="M30.1025 84.4033L18.4082 84.4033L18.4082 54.9111L30.1025 54.9111L30.1025 84.4033ZM5.39551 24.4912L17.6025 24.4912C14.8926 39.7012 10.3027 53.7881 3.2959 63.2119C4.49219 65.0918 6.20117 69.291 6.68945 71.0977C8.59375 68.7051 10.3027 65.9951 11.8896 63.0898L11.8896 99.1982L18.4082 99.1982L18.4082 91.0928L36.6943 91.0928L36.6943 48.2949L18.4082 48.2949C20.9961 40.8975 23.0957 32.792 24.6094 24.4912L39.502 24.4912L39.502 17.6064L5.39551 17.6064L5.39551 24.4912ZM79.1016 75.3945L41.0889 75.3945L41.0889 82.1084L79.1016 82.1084L79.1016 75.3945ZM81.2988 55.9121C83.0078 43.6074 84.4971 28.7881 85.3027 18.5098L80.1025 17.8994L79.0039 18.29L44.4092 18.29L44.4092 25.1016L77.71 25.1016C76.9043 33.793 75.6104 45.9023 74.3896 55.9121L53.5889 55.9121C54.4922 48.4902 55.4932 39.3105 56.0059 31.6934L49.0967 31.3027C48.3887 40.9951 47.0947 54.2031 45.8008 62.3086L86.1084 62.3086C84.2041 84.208 82.1045 92.9971 79.4922 95.5117C78.4912 96.4883 77.3926 96.708 75.708 96.708C73.9014 96.708 69.5068 96.708 64.5996 96.0977C65.7959 98.002 66.5039 100.907 66.6992 103.007C71.5088 103.202 76.001 103.3 78.5889 103.007C81.5918 102.909 83.3984 102.104 85.4004 100.004C88.8916 96.3906 91.2109 85.9902 93.4082 59.208C93.5059 58.207 93.6035 55.9121 93.6035 55.9121L81.2988 55.9121ZM192.505 19.6084L172.9 19.6084C171.997 17.0938 170.508 14.0908 169.312 11.7959L162.793 13.2119C163.696 15.1895 164.697 17.4111 165.503 19.6084L144.604 19.6084L144.604 25.8096L192.505 25.8096L192.505 19.6084ZM194.702 37.5039L180.591 37.5039C181.909 34.7939 183.496 31.498 185.01 28.2998L178.101 26.6885C177.197 29.7891 175.391 34.208 173.901 37.5039L157.007 37.5039L162.305 36.1123C161.694 33.5 160.205 29.4961 158.691 26.4932L152.588 27.8115C153.906 30.9121 155.298 34.8916 155.811 37.5039L141.699 37.5039L141.699 43.8027L194.702 43.8027L194.702 37.5039ZM138.306 30.4971L138.306 23.71L120.703 23.71C122.095 20.8047 123.291 17.6064 124.292 14.6035L117.7 12.6016C114.795 21.8057 109.692 30.79 103.906 36.6006C105.103 38.3096 107.104 41.9961 107.69 43.5098C111.206 39.9941 114.404 35.502 117.212 30.4971L138.306 30.4971ZM126.489 88.7979L126.489 68.4121L139.502 68.4121L139.502 61.6006L126.489 61.6006L126.489 48.1973L136.694 48.1973L136.694 41.4102L110.596 41.4102L110.596 48.1973L119.507 48.1973L119.507 61.6006L106.104 61.6006L106.104 68.4121L119.507 68.4121L119.507 87.3086C119.507 91.7031 116.089 94.999 114.111 96.1953C115.503 97.8066 117.505 100.907 118.188 102.689C119.702 100.907 122.607 99.1982 140.21 88.0898C139.6 86.6006 138.794 83.6953 138.501 81.6934L126.489 88.7979ZM153.101 65.6045L183.594 65.6045L183.594 72.3916L153.101 72.3916L153.101 65.6045ZM153.101 54.2031L183.594 54.2031L183.594 60.7949L153.101 60.7949L153.101 54.2031ZM181.104 96.8057C179.004 96.8057 178.589 96.3906 178.589 94.3887L178.589 77.4941L190.503 77.4941L190.503 49.1006L146.411 49.1006L146.411 77.4941L156.006 77.4941C155.005 89.7012 151.294 94.999 135.303 98.1973C136.792 99.5889 138.696 102.299 139.307 104.008C157.202 99.7109 161.89 92.6064 163.11 77.4941L171.704 77.4941L171.704 94.3887C171.704 100.712 173.291 102.494 180.005 102.494L188.403 102.494C193.896 102.494 195.703 99.7109 196.191 88.9932C194.409 88.5049 191.797 87.5039 190.308 86.5029C190.088 95.5117 189.697 96.8057 187.598 96.8057L181.104 96.8057Z" fill="url(#paint_linear_26)" fill-rule="nonzero" />
</svg>
