<svg viewBox="0 0 500 100" xmlns="http://www.w3.org/2000/svg" xmlns:xlink="http://www.w3.org/1999/xlink" width="500.000000" height="100.000000" fill="none">
	<defs>
		<linearGradient id="paint_linear_27" x1="-3.99987793" x2="500" y1="0" y2="0" gradientUnits="userSpaceOnUse">
			<stop stop-color="rgb(250,138,78)" offset="0.00999917183" stop-opacity="1" />
			<stop stop-color="rgb(251,179,83)" offset="0.246110305" stop-opacity="1" />
			<stop stop-color="rgb(227,84,141)" offset="0.476269156" stop-opacity="1" />
			<stop stop-color="rgb(143,88,240)" offset="0.732221365" stop-opacity="1" />
			<stop stop-color="rgb(98,154,244)" offset="0.992142141" stop-opacity="1" />
		</linearGradient>
	</defs>
	<rect id="CoudeLume" width="500.000000" height="100.000000" x="0.000000" y="0.000000" fill="rgb(255,255,255)" fill-opacity="0" />
	<path id="" d="M33.6953 85.2939C43.1924 85.2939 50.3945 81.5098 56.2051 74.7959L51.1025 69.0098C46.3906 74.0879 41.0928 77.1885 34.1104 77.1885C20.0967 77.1885 11.3076 65.5918 11.3076 47.1104C11.3076 28.7998 20.5117 17.3984 34.4033 17.3984C40.7021 17.3984 45.6094 20.3037 49.3936 24.4053L54.3984 18.3994C50.1992 13.7119 43.1924 9.29297 34.3057 9.29297C15.7021 9.29297 1.81055 23.6973 1.81055 47.4033C1.81055 71.207 15.5068 85.2939 33.6953 85.2939ZM90.0979 85.2939C103.404 85.2939 115.293 74.8936 115.293 56.9004C115.293 38.8096 103.404 28.3115 90.0979 28.3115C76.7922 28.3115 64.9025 38.8096 64.9025 56.9004C64.9025 74.8936 76.7922 85.2939 90.0979 85.2939ZM90.0979 77.7012C80.6984 77.7012 74.3996 69.4004 74.3996 56.9004C74.3996 44.4004 80.6984 35.9043 90.0979 35.9043C99.4973 35.9043 105.894 44.4004 105.894 56.9004C105.894 69.4004 99.4973 77.7012 90.0979 77.7012ZM148.11 85.2939C154.604 85.2939 160.293 81.8027 164.589 77.6035L164.907 77.6035L165.688 84L173.11 84L173.11 4.41016L164.101 4.41016L164.101 25.3086L164.492 34.708C159.707 30.7041 155.605 28.3115 149.209 28.3115C136.806 28.3115 125.698 39.2979 125.698 56.9004C125.698 74.9912 134.511 85.2939 148.11 85.2939ZM150.112 77.7012C140.493 77.7012 135.097 69.8887 135.097 56.8027C135.097 44.4004 142.006 36.002 150.796 36.002C155.312 36.002 159.389 37.5889 164.101 41.6904L164.101 70.2061C159.511 75.2109 155.092 77.7012 150.112 77.7012ZM213.504 85.2939C220.901 85.2939 226.712 82.8037 231.497 79.7031L228.201 73.6973C224.197 76.4072 219.9 77.9941 214.602 77.9941C204.299 77.9941 197.195 70.5967 196.609 59L233.206 59C233.401 57.7061 233.596 55.8018 233.596 53.7998C233.596 38.2969 225.808 28.3115 211.99 28.3115C199.392 28.3115 187.503 39.2979 187.503 56.9004C187.503 74.7959 199.099 85.2939 213.504 85.2939ZM196.511 52.4082C197.61 41.7881 204.397 35.6113 212.112 35.6113C220.608 35.6113 225.588 41.4951 225.588 52.4082L196.511 52.4082ZM247.81 84L289.094 84L289.094 76.0898L257.112 76.0898L257.112 10.6113L247.81 10.6113L247.81 84ZM316 85.2939C323.495 85.2939 328.891 81.4121 333.993 75.5039L334.311 75.5039L334.994 84L342.611 84L342.611 29.7031L333.505 29.7031L333.505 68.2041C328.305 74.6982 324.398 77.4082 318.808 77.4082C311.605 77.4082 308.603 73.1113 308.603 63.0039L308.603 29.7031L299.496 29.7031L299.496 64.1025C299.496 77.8965 304.599 85.2939 316 85.2939ZM360.904 84L370.011 84L370.011 44.5957C374.991 39.0049 379.605 36.2949 383.707 36.2949C390.592 36.2949 393.79 40.5918 393.79 50.7969L393.79 84L402.896 84L402.896 44.5957C407.999 39.0049 412.393 36.2949 416.593 36.2949C423.502 36.2949 426.7 40.5918 426.7 50.7969L426.7 84L435.806 84L435.806 49.6006C435.806 35.709 430.509 28.3115 419.303 28.3115C412.711 28.3115 406.998 32.6084 401.407 38.7119C399.21 32.291 394.693 28.3115 386.392 28.3115C379.898 28.3115 374.21 32.3887 369.498 37.5889L369.205 37.5889L368.399 29.7031L360.904 29.7031L360.904 84ZM475.404 85.2939C482.801 85.2939 488.612 82.8037 493.397 79.7031L490.101 73.6973C486.097 76.4072 481.8 77.9941 476.502 77.9941C466.199 77.9941 459.095 70.5967 458.509 59L495.106 59C495.301 57.7061 495.496 55.8018 495.496 53.7998C495.496 38.2969 487.708 28.3115 473.89 28.3115C461.292 28.3115 449.403 39.2979 449.403 56.9004C449.403 74.7959 460.999 85.2939 475.404 85.2939ZM458.411 52.4082C459.51 41.7881 466.297 35.6113 474.012 35.6113C482.508 35.6113 487.488 41.4951 487.488 52.4082L458.411 52.4082Z" fill="url(#paint_linear_27)" fill-rule="nonzero" />
</svg>
